<svg xmlns="http://www.w3.org/2000/svg" width="400" height="270" viewBox="0 0 400 270" fill="none"><path fill-rule="evenodd" clip-rule="evenodd" d="M214.787 14.2324C214.787 16.4318 214.261 18.507 213.329 20.3357L201.617 43.1427L189.998 20.5152C189.008 18.6432 188.446 16.5042 188.446 14.2324C188.446 6.86993 194.343 0.901489 201.617 0.901489C208.89 0.901489 214.787 6.86993 214.787 14.2324ZM201.456 16.9628C202.964 16.9628 204.186 15.7403 204.186 14.2324C204.186 12.7244 202.964 11.5019 201.456 11.5019C199.948 11.5019 198.726 12.7244 198.726 14.2324C198.726 15.7403 199.948 16.9628 201.456 16.9628Z" fill="#A00505"></path><path fill-rule="evenodd" clip-rule="evenodd" d="M239.084 35.4076C237.524 36.9578 235.681 38.047 233.727 38.6747L209.293 46.441L217.156 22.2506C217.786 20.2288 218.908 18.3229 220.519 16.7217C225.742 11.5326 234.132 11.509 239.259 16.6689C244.385 21.8289 244.307 30.2185 239.084 35.4076ZM227.752 27.8752C228.815 28.9449 230.543 28.9505 231.613 27.8877C232.683 26.8248 232.689 25.096 231.626 24.0263C230.563 22.9565 228.834 22.9509 227.764 24.0138C226.695 25.0766 226.689 26.8054 227.752 27.8752Z" fill="#A00505"></path><path fill-rule="evenodd" clip-rule="evenodd" d="M164.175 35.4076C165.735 36.9578 167.578 38.047 169.532 38.6747L193.966 46.441L186.103 22.2506C185.473 20.2288 184.351 18.3229 182.74 16.7217C177.517 11.5326 169.127 11.509 164 16.6689C158.874 21.8289 158.952 30.2185 164.175 35.4076ZM175.507 27.8752C174.444 28.9449 172.716 28.9505 171.646 27.8877C170.576 26.8248 170.571 25.096 171.633 24.0263C172.696 22.9565 174.425 22.9509 175.495 24.0138C176.565 25.0766 176.57 26.8054 175.507 27.8752Z" fill="#A00505"></path><path fill-rule="evenodd" clip-rule="evenodd" d="M214.787 93.8492C214.787 91.6497 214.261 89.5746 213.329 87.7459L201.617 64.9388L189.998 87.5664C189.008 89.4383 188.446 91.5774 188.446 93.8492C188.446 101.212 194.343 107.18 201.617 107.18C208.89 107.18 214.787 101.212 214.787 93.8492ZM201.456 91.1187C202.964 91.1187 204.186 92.3412 204.186 93.8492C204.186 95.3571 202.964 96.5796 201.456 96.5796C199.948 96.5796 198.726 95.3571 198.726 93.8492C198.726 92.3412 199.948 91.1187 201.456 91.1187Z" fill="#A00505"></path><path fill-rule="evenodd" clip-rule="evenodd" d="M241.425 67.2109C239.226 67.2109 237.151 66.6846 235.322 65.7526L212.515 54.0407L235.142 42.4219C237.014 41.4318 239.153 40.8704 241.425 40.8704C248.787 40.8703 254.756 46.7668 254.756 54.0406C254.756 61.3143 248.788 67.2108 241.425 67.2109ZM238.695 53.88C238.695 55.388 239.917 56.6104 241.425 56.6104C242.933 56.6104 244.156 55.388 244.156 53.88C244.156 52.372 242.933 51.1496 241.425 51.1496C239.917 51.1496 238.695 52.372 238.695 53.88Z" fill="#A00505"></path><path fill-rule="evenodd" clip-rule="evenodd" d="M161.808 67.2111C164.008 67.2111 166.083 66.6849 167.912 65.7528L190.719 54.0408L168.091 42.4221C166.219 41.432 164.08 40.8706 161.808 40.8706C154.446 40.8706 148.477 46.7672 148.477 54.0409C148.477 61.3147 154.446 67.2112 161.808 67.2111ZM164.539 53.8802C164.539 55.3882 163.316 56.6107 161.808 56.6107C160.3 56.6107 159.078 55.3882 159.078 53.8803C159.078 52.3723 160.3 51.1498 161.808 51.1498C163.316 51.1498 164.539 52.3723 164.539 53.8802Z" fill="#A00505"></path><path fill-rule="evenodd" clip-rule="evenodd" d="M239.084 72.6739C237.524 71.1237 235.681 70.0345 233.727 69.4068L209.293 61.6406L217.156 85.831C217.786 87.8527 218.908 89.7586 220.519 91.3598C225.742 96.5489 234.132 96.5725 239.259 91.4126C244.385 86.2526 244.307 77.8631 239.084 72.6739ZM227.752 80.2064C228.815 79.1366 230.543 79.131 231.613 80.1938C232.683 81.2567 232.689 82.9855 231.626 84.0552C230.563 85.125 228.834 85.1306 227.764 84.0677C226.695 83.0049 226.689 81.2761 227.752 80.2064Z" fill="#A00505"></path><path fill-rule="evenodd" clip-rule="evenodd" d="M164.175 72.6739C165.735 71.1237 167.578 70.0345 169.532 69.4068L193.966 61.6406L186.103 85.831C185.473 87.8527 184.351 89.7586 182.74 91.3598C177.517 96.5489 169.127 96.5725 164 91.4126C158.874 86.2526 158.952 77.8631 164.175 72.6739ZM175.507 80.2064C174.444 79.1366 172.716 79.131 171.646 80.1938C170.576 81.2567 170.571 82.9855 171.633 84.0552C172.696 85.125 174.425 85.1306 175.495 84.0677C176.565 83.0049 176.57 81.2761 175.507 80.2064Z" fill="#A00505"></path><path d="M194.177 54.0414C198.412 52.9214 200.123 51.3909 201.617 46.8139C203.244 51.7227 204.937 53.0946 208.954 54.0414C204.048 55.4079 202.648 57.1092 201.617 61.2678C200.267 56.8527 198.787 55.075 194.177 54.0414Z" fill="#A00505"></path><path d="M24.3815 171.885C35.2576 171.885 45.9498 165.674 45.9498 156.45C45.9498 147.226 39.6337 140.441 28.7577 140.441C27.3145 140.437 25.8408 140.402 24.3701 140.368C22.1397 140.316 19.9163 140.265 17.8173 140.317V140.314H0L5.31393 145.771V186.403L0.19597 191.89H22.9352L17.8173 186.403V142.834C19.4464 142.681 21.1408 142.629 22.8186 142.629C30.7599 142.629 32.8213 148.854 32.8213 156.45C32.8213 164.046 30.7599 168.886 22.8186 168.886C22.1944 168.886 21.5678 168.825 20.9431 168.709V171.478C22.0391 171.743 23.1866 171.885 24.3815 171.885Z" fill="#A00505"></path><path fill-rule="evenodd" clip-rule="evenodd" d="M82.7339 139.69L82.7347 139.689H65.9553L71.1505 146.423L57.3264 185.182L50.3321 192.047H66.5745L59.3857 184.991L62.6109 175.949H82.39L85.9234 185.856L79.7599 191.89H88.0752L88.1763 192.174L88.9715 191.89H104.665L99.5717 186.904L82.7339 139.69ZM63.2798 174.073H81.7211L72.5011 148.219L63.2798 174.073Z" fill="#A00505"></path><path d="M162.544 155.005C162.544 161.715 154.902 165.61 146.549 167.235L153.706 167.572L153.71 167.57L163.726 186.072L170.307 192.515H145.402L150.366 187.656L143.394 174.776L139.743 168.066C138.888 168.112 138.046 168.134 137.224 168.134V166.258C145.166 166.258 149.728 162.601 149.728 155.005C149.728 147.409 147.666 142.648 139.725 142.648C138.047 142.648 136.353 142.7 134.724 142.853V186.422L139.842 191.909H117.102L122.22 186.422V145.79L116.906 140.333H134.724V140.336C136.823 140.283 139.046 140.335 141.277 140.387C142.747 140.421 144.221 140.456 145.664 140.46C156.54 140.46 162.544 145.782 162.544 155.005Z" fill="#A00505"></path><path d="M223.498 140.314V153.599L214.37 142.189H207.868V186.403L212.986 191.89H190.247L195.365 186.403V142.189H188.863L179.736 153.599V140.314H223.498Z" fill="#A00505"></path><path fill-rule="evenodd" clip-rule="evenodd" d="M261.526 140.315L261.527 140.314H244.747L249.942 147.048L236.118 185.807L229.124 192.672H245.366L238.178 185.616L241.403 176.574H261.182L264.715 186.482L258.552 192.515H266.867L266.968 192.799L267.763 192.515H283.457L278.364 187.529L261.526 140.315ZM242.072 174.698H260.513L251.293 148.845L242.072 174.698Z" fill="#A00505"></path><path d="M315.71 139.064C322.464 139.064 331.071 139.911 337.903 142.693V156.568H336.297C335.227 146.857 331.429 141.877 320.711 141.877C307.418 141.877 305.395 151.724 305.395 166.571C305.395 181.418 307.731 189.702 321.024 189.702C325.613 189.946 327.693 186.539 328.526 182.904V175.48L322.899 168.446H339.779V187.613C332.777 193 321.692 193.766 315.71 193.766C302.417 193.766 291.641 180.792 291.641 165.946C291.641 151.099 302.417 139.064 315.71 139.064Z" fill="#A00505"></path><path d="M355.721 140.314L361.034 145.771V186.403L355.917 191.89H361.655V191.893H399.285L400 178.295L387.423 190.017H376.909L373.538 186.403V166.571H381.423L388.854 173.484V157.783L381.423 164.695H373.538V142.189H386.916L396.044 153.599V140.314H355.721Z" fill="#A00505"></path><path d="M120.97 232.839H126.223L138.462 254.497H138.888L151.352 232.839H156.605V269.099H152.487V241.55H152.132L140.663 260.659H136.688L125.442 241.55H125.087V269.099H120.97V232.839Z" fill="white" fill-opacity="0.7"></path><path d="M169.349 269.099H164.732L178.088 232.839H182.634L195.99 269.099H191.372L180.503 238.575H180.219L169.349 269.099ZM171.054 254.935H189.667V258.83H171.054V254.935Z" fill="white" fill-opacity="0.7"></path><path d="M204.117 269.099V232.839H208.51V265.203H225.373V269.099H204.117Z" fill="white" fill-opacity="0.7"></path><path d="M233.5 269.099V232.839H237.893V265.203H254.756V269.099H233.5Z" fill="white" fill-opacity="0.7"></path><path d="M280.279 242.11C280.107 240.37 279.406 239.019 278.177 238.058C276.948 237.097 275.441 236.616 273.655 236.616C272.349 236.616 271.207 236.868 270.228 237.371C269.258 237.875 268.499 238.567 267.952 239.449C267.415 240.33 267.146 241.331 267.146 242.453C267.146 243.392 267.333 244.199 267.707 244.874C268.091 245.538 268.581 246.093 269.176 246.539C269.771 246.974 270.396 247.335 271.048 247.621C271.701 247.895 272.301 248.119 272.848 248.29L275.844 249.252C276.612 249.492 277.466 249.824 278.407 250.248C279.358 250.671 280.265 251.249 281.129 251.982C282.003 252.703 282.723 253.63 283.289 254.763C283.856 255.896 284.139 257.287 284.139 258.935C284.139 260.835 283.721 262.552 282.886 264.085C282.06 265.619 280.851 266.838 279.257 267.742C277.673 268.646 275.748 269.099 273.482 269.099C271.37 269.099 269.541 268.692 267.995 267.88C266.459 267.067 265.25 265.934 264.366 264.48C263.493 263.027 262.998 261.338 262.883 259.416H266.57C266.666 260.743 267.04 261.842 267.693 262.712C268.355 263.57 269.191 264.211 270.199 264.635C271.216 265.047 272.311 265.253 273.482 265.253C274.845 265.253 276.07 264.99 277.154 264.463C278.239 263.925 279.098 263.181 279.732 262.231C280.366 261.27 280.683 260.148 280.683 258.866C280.683 257.699 280.409 256.749 279.862 256.016C279.314 255.284 278.594 254.688 277.702 254.231C276.809 253.773 275.844 253.372 274.807 253.029L271.178 251.793C268.874 251.003 267.05 249.876 265.706 248.411C264.362 246.946 263.69 245.028 263.69 242.659C263.69 240.69 264.136 238.974 265.029 237.509C265.931 236.032 267.141 234.888 268.658 234.075C270.184 233.251 271.888 232.839 273.77 232.839C275.671 232.839 277.361 233.245 278.839 234.058C280.318 234.859 281.489 235.958 282.353 237.354C283.227 238.75 283.688 240.336 283.736 242.11H280.279Z" fill="white" fill-opacity="0.7"></path></svg>