<?xml version="1.0" encoding="UTF-8" standalone="no"?>
<svg
   version="1.1"
   width="1303.937pt"
   height="595.27557pt"
   id="svg10"
   viewBox="0 0 1303.937 595.27557"
   sodipodi:docname="1509_18_IdentidadeVisual_Krios_2024_REV3_Aprovada2025_curva.cdr"
   xmlns:inkscape="http://www.inkscape.org/namespaces/inkscape"
   xmlns:sodipodi="http://sodipodi.sourceforge.net/DTD/sodipodi-0.dtd"
   xmlns="http://www.w3.org/2000/svg"
   xmlns:svg="http://www.w3.org/2000/svg">
  <defs
     id="defs10" />
  <sodipodi:namedview
     id="namedview10"
     pagecolor="#ffffff"
     bordercolor="#000000"
     borderopacity="0.25"
     inkscape:showpageshadow="2"
     inkscape:pageopacity="0.0"
     inkscape:pagecheckerboard="0"
     inkscape:deskcolor="#d1d1d1"
     inkscape:document-units="pt" />
  <g
     id="Layer1000">
    <path
       d="m 894.1068,255.7531 h -48.1493 c -3.5221,0 -6.7337,1.4505 -9.0703,3.7871 -2.3366,2.3366 -3.7871,5.5482 -3.7871,9.0703 0,3.5223 1.4508,6.7342 3.7871,9.0705 2.3366,2.3366 5.5482,3.7871 9.0703,3.7871 h 10.834 24.4582 1.7484 v 0.0394 c 10.1041,0.4476 19.2393,4.7532 25.9543,11.4687 7.1005,7.1005 11.5081,16.9064 11.5081,27.703 0,10.7963 -4.4076,20.6028 -11.5081,27.7033 -7.1002,7.1002 -16.9064,11.5081 -27.7027,11.5081 h -35.2922 v -26.3537 h 35.2922 c 3.5217,0 6.7337,-1.4508 9.07,-3.7871 2.3366,-2.3366 3.7871,-5.5483 3.7871,-9.0703 0,-3.5223 -1.4505,-6.734 -3.7871,-9.0706 -2.3363,-2.3363 -5.5483,-3.7871 -9.07,-3.7871 h -24.4582 -10.834 c -10.7966,0 -20.6025,-4.4076 -27.703,-11.5081 -7.1008,-7.1002 -11.5081,-16.9064 -11.5081,-27.703 0,-10.7968 4.4073,-20.603 11.5081,-27.7032 7.1002,-7.1008 16.9064,-11.5081 27.703,-11.5081 h 48.1493 z"
       style="fill:#000401;fill-rule:evenodd"
       id="path1" />
    <path
       d="M 487.1132,360.3464 458.742,314.9711 c -4.6182,-7.3862 -14.4408,-13.43 -21.827,-13.43 h -17.089 l 36.7682,58.8053 z"
       style="fill:#ff7b00;fill-rule:evenodd"
       id="path2" />
    <path
       d="m 731.5569,229.4385 c 36.1491,0 65.4539,29.3048 65.4539,65.4539 0,36.1491 -29.3048,65.454 -65.4539,65.454 -36.1492,0 -65.454,-29.3049 -65.454,-65.454 0,-36.1491 29.3048,-65.4539 65.454,-65.4539 z m 0,25.632 c 21.9928,0 39.8219,17.8291 39.8219,39.8219 0,21.9929 -17.8291,39.822 -39.8219,39.822 -21.9929,0 -39.822,-17.8291 -39.822,-39.822 0,-21.9928 17.8291,-39.8219 39.822,-39.8219 z"
       style="fill:#000401;fill-rule:evenodd"
       id="path3" />
    <path
       d="m 541.5993,279.3441 c 0.2534,-16.2212 5.2503,-28.0071 13.8753,-36.2993 8.7027,-8.367 20.4551,-12.4186 34.278,-13.3645 0.5921,-0.0403 3.8545,-0.0794 7.9035,-0.1126 l 16.1527,-0.1292 v 26.3537 c -2.4693,0 -13.8115,0.009 -15.9469,0.0261 -3.0498,0.0249 -5.6089,0.0612 -6.3592,0.1125 -7.8066,0.5341 -13.9867,2.3828 -17.807,6.0557 -3.6689,3.5271 -5.7537,9.515 -5.7537,18.6627 h -3e-4 v 79.6972 h -26.3534 v -79.6972 -1.3051 z"
       style="fill:#000401;fill-rule:evenodd"
       id="path4" />
    <path
       d="m 626.8127,274.068 c 0.2534,-16.2213 5.2504,-28.0071 13.8753,-36.2993 3.6448,-3.5042 7.8242,-6.2513 12.4671,-8.3302 v 45.9346 84.9733 h -26.3534 v -84.9733 -1.3051 z"
       style="fill:#000401;fill-rule:evenodd"
       id="path5" />
    <path
       d="m 487.1132,229.4385 -33.8783,54.1834 c -4.6182,7.3862 -14.4408,13.43 -21.8271,13.43 h -17.0889 l 42.2753,-67.6134 z"
       style="fill:#ff7b00;fill-rule:evenodd"
       id="path6" />
    <path
       d="m 383.4879,274.068 c 0.2534,-16.2213 5.2503,-28.0071 13.8753,-36.2993 3.6448,-3.5042 7.8242,-6.2513 12.467,-8.3302 v 45.9346 84.9733 h -26.3534 v -84.9733 -1.3051 z"
       style="fill:#ff7b00;fill-rule:evenodd"
       id="path7" />
    <path
       d="m 559.4537,392.0635 c -1.5531,2.3619 -4.2869,3.4182 -6.4933,3.4182 -5.7486,0 -9.322,-4.2253 -9.322,-9.6943 0,-5.468 3.5734,-9.6947 9.322,-9.6947 2.2064,0 4.5361,0.9329 5.9032,2.983 l 1.6775,-1.3978 c -1.9257,-2.4546 -4.5983,-3.449 -7.5807,-3.449 -6.7116,0 -11.3722,4.8468 -11.3722,11.5585 0,6.7113 4.6606,11.5585 11.3722,11.5585 3.2313,0 6.0902,-1.1493 8.1714,-4.0079 z M 817.456,372.384 v -1.7732 h 7.1228 v 1.7732 z m -35.1824,28.3105 v -1.7726 h 7.1239 v 1.7726 z m 96.8622,-6.6732 c 1.7082,2.393 4.2571,3.3246 7.1461,3.3246 3.5735,0 6.8361,-2.2057 6.8361,-6.1832 0,-8.265 -11.341,-4.2875 -11.341,-10.9059 0,-2.796 2.2993,-4.1641 4.9401,-4.1641 1.8953,0 3.2627,0.7459 4.2876,2.1752 l 1.7711,-1.2734 c -1.4915,-1.9582 -3.6041,-2.7656 -5.9965,-2.7656 -3.6978,0 -7.0531,2.113 -7.0531,6.0279 0,8.3581 11.341,4.7532 11.341,10.9059 0,2.6409 -2.1759,4.319 -4.9401,4.319 -2.1756,0 -3.9467,-0.9322 -5.0339,-2.7652 z m -29.5105,2.7657 h 13.9515 v -1.8642 h -11.9007 v -8.5758 h 10.6885 v -1.8641 h -10.6885 v -7.8306 h 11.4029 v -1.8642 h -13.4537 z m -39.7946,-10.9996 c 0,6.7113 4.6602,11.5585 11.3719,11.5585 6.7113,0 11.3722,-4.8472 11.3722,-11.5585 0,-6.7117 -4.6609,-11.5585 -11.3722,-11.5585 -6.7117,0 -11.3719,4.8468 -11.3719,11.5585 z m 2.0505,0 c 0,-5.468 3.573,-9.6947 9.3214,-9.6947 5.7479,0 9.3214,4.2267 9.3214,9.6947 0,5.469 -3.5735,9.6943 -9.3214,9.6943 -5.7484,0 -9.3214,-4.2253 -9.3214,-9.6943 z m -18.5113,6.2761 c -1.5534,2.3619 -4.2876,3.4182 -6.4939,3.4182 -5.748,0 -9.3214,-4.2253 -9.3214,-9.6943 0,-5.468 3.5734,-9.6947 9.3214,-9.6947 2.2063,0 4.5368,0.9329 5.9038,2.983 l 1.6775,-1.3978 c -1.9263,-2.4546 -4.5983,-3.449 -7.5813,-3.449 -6.7113,0 -11.3715,4.8468 -11.3715,11.5585 0,6.7113 4.6602,11.5585 11.3715,11.5585 3.2312,0 6.0901,-1.1493 8.1714,-4.0079 z m -34.5126,-17.2754 h -2.0511 v 13.0501 c 0,3.1379 -0.8389,7.6435 -5.9657,7.6435 -5.1265,0 -5.9658,-4.5056 -5.9658,-7.6435 v -13.0501 h -2.0508 v 13.5786 c 0,4.6916 2.0197,8.9792 8.0166,8.9792 5.9968,0 8.0168,-4.2876 8.0168,-8.9792 z m -44.4561,1.8642 h 4.3501 c 4.319,0 5.158,2.3923 5.158,3.9149 0,1.5233 -0.839,3.9157 -5.158,3.9157 h -4.3501 z m -2.0508,20.1347 h 2.0508 v -10.44 h 3.822 l 6.1831,10.44 h 2.3301 l -6.3999,-10.5644 c 2.4234,-0.3108 5.6236,-1.4601 5.6236,-5.6554 0,-5.7791 -6.0899,-5.7791 -7.8299,-5.7791 h -5.7798 z m -25.4086,0 h 2.0508 v -20.1347 h 7.5192 v -1.8642 H 679.422 v 1.8642 h 7.5198 z m -35.9736,-2.7657 c 1.7093,2.393 4.2571,3.3246 7.1469,3.3246 3.5727,0 6.8354,-2.2057 6.8354,-6.1832 0,-8.265 -11.3411,-4.2875 -11.3411,-10.9059 0,-2.796 2.2993,-4.1641 4.9402,-4.1641 1.8952,0 3.2626,0.7459 4.2875,2.1752 l 1.7712,-1.2734 c -1.4915,-1.9582 -3.6042,-2.7656 -5.9965,-2.7656 -3.6975,0 -7.0532,2.113 -7.0532,6.0279 0,8.3581 11.3411,4.7532 11.3411,10.9059 0,2.6409 -2.1752,4.319 -4.9402,4.319 -2.1756,0 -3.9467,-0.9322 -5.0338,-2.7652 z m -35.2591,2.7657 h 2.0511 v -19.2647 h 0.0615 l 13.3926,19.2647 h 2.6408 v -21.9989 h -2.0508 v 19.2647 h -0.0618 l -13.3919,-19.2647 h -2.6415 z m -39.7946,-10.9996 c 0,6.7113 4.6608,11.5585 11.3722,11.5585 6.7116,0 11.3722,-4.8472 11.3722,-11.5585 0,-6.7117 -4.6606,-11.5585 -11.3722,-11.5585 -6.7114,0 -11.3722,4.8468 -11.3722,11.5585 z m 2.0504,0 c 0,-5.468 3.5731,-9.6947 9.3218,-9.6947 5.7483,0 9.321,4.2267 9.321,9.6947 0,5.469 -3.5727,9.6943 -9.321,9.6943 -5.7487,0 -9.3218,-4.2253 -9.3218,-9.6943 z"
       style="fill:#1b1918;fill-rule:evenodd"
       id="path8" />
    <path
       d="M 529.2198,194.7886 415.3689,394.9959 h -5.2852 L 523.9344,194.7886 Z"
       style="fill:#000401;fill-rule:evenodd"
       id="path9" />
    <path
       d="m 639.978,194.5811 c 7.2771,0 13.1765,5.8995 13.1765,13.1766 0,7.2771 -5.8994,13.1766 -13.1765,13.1766 -7.2771,0 -13.1766,-5.8995 -13.1766,-13.1766 0,-7.2771 5.8995,-13.1766 13.1766,-13.1766 z"
       style="fill:#1b1918;fill-rule:evenodd"
       id="path10" />
  </g>
</svg>
